<svg id="visual" viewBox="0 0 1280 720" width="1280" height="720" xmlns="http://www.w3.org/2000/svg" xmlns:xlink="http://www.w3.org/1999/xlink" version="1.1"><rect x="0" y="0" width="1280" height="720" fill="#001220"></rect><defs><linearGradient id="grad1_0" x1="43.8%" y1="0%" x2="100%" y2="100%"><stop offset="14.444444444444446%" stop-color="#fbae3c" stop-opacity="1"></stop><stop offset="85.55555555555554%" stop-color="#fbae3c" stop-opacity="1"></stop></linearGradient></defs><defs><linearGradient id="grad1_1" x1="43.8%" y1="0%" x2="100%" y2="100%"><stop offset="14.444444444444446%" stop-color="#fbae3c" stop-opacity="1"></stop><stop offset="85.55555555555554%" stop-color="#e1685e" stop-opacity="1"></stop></linearGradient></defs><defs><linearGradient id="grad1_2" x1="43.8%" y1="0%" x2="100%" y2="100%"><stop offset="14.444444444444446%" stop-color="#96446e" stop-opacity="1"></stop><stop offset="85.55555555555554%" stop-color="#e1685e" stop-opacity="1"></stop></linearGradient></defs><defs><linearGradient id="grad1_3" x1="43.8%" y1="0%" x2="100%" y2="100%"><stop offset="14.444444444444446%" stop-color="#96446e" stop-opacity="1"></stop><stop offset="85.55555555555554%" stop-color="#3d3056" stop-opacity="1"></stop></linearGradient></defs><defs><linearGradient id="grad1_4" x1="43.8%" y1="0%" x2="100%" y2="100%"><stop offset="14.444444444444446%" stop-color="#001220" stop-opacity="1"></stop><stop offset="85.55555555555554%" stop-color="#3d3056" stop-opacity="1"></stop></linearGradient></defs><defs><linearGradient id="grad2_0" x1="0%" y1="0%" x2="56.3%" y2="100%"><stop offset="14.444444444444446%" stop-color="#fbae3c" stop-opacity="1"></stop><stop offset="85.55555555555554%" stop-color="#fbae3c" stop-opacity="1"></stop></linearGradient></defs><defs><linearGradient id="grad2_1" x1="0%" y1="0%" x2="56.3%" y2="100%"><stop offset="14.444444444444446%" stop-color="#e1685e" stop-opacity="1"></stop><stop offset="85.55555555555554%" stop-color="#fbae3c" stop-opacity="1"></stop></linearGradient></defs><defs><linearGradient id="grad2_2" x1="0%" y1="0%" x2="56.3%" y2="100%"><stop offset="14.444444444444446%" stop-color="#e1685e" stop-opacity="1"></stop><stop offset="85.55555555555554%" stop-color="#96446e" stop-opacity="1"></stop></linearGradient></defs><defs><linearGradient id="grad2_3" x1="0%" y1="0%" x2="56.3%" y2="100%"><stop offset="14.444444444444446%" stop-color="#3d3056" stop-opacity="1"></stop><stop offset="85.55555555555554%" stop-color="#96446e" stop-opacity="1"></stop></linearGradient></defs><defs><linearGradient id="grad2_4" x1="0%" y1="0%" x2="56.3%" y2="100%"><stop offset="14.444444444444446%" stop-color="#3d3056" stop-opacity="1"></stop><stop offset="85.55555555555554%" stop-color="#001220" stop-opacity="1"></stop></linearGradient></defs><g transform="translate(1280, 0)"><path d="M0 360C-68.9 354 -137.8 348 -180 311.8C-222.2 275.5 -237.7 209 -263.3 152C-288.8 95 -324.4 47.5 -360 0L0 0Z" fill="#18223c"></path><path d="M0 288C-55.1 283.2 -110.2 278.4 -144 249.4C-177.8 220.4 -190.2 167.2 -210.6 121.6C-231.1 76 -259.5 38 -288 0L0 0Z" fill="#683a67"></path><path d="M0 216C-41.3 212.4 -82.7 208.8 -108 187.1C-133.3 165.3 -142.6 125.4 -158 91.2C-173.3 57 -194.6 28.5 -216 0L0 0Z" fill="#c0526a"></path><path d="M0 144C-27.6 141.6 -55.1 139.2 -72 124.7C-88.9 110.2 -95.1 83.6 -105.3 60.8C-115.5 38 -129.8 19 -144 0L0 0Z" fill="#f6884d"></path><path d="M0 72C-13.8 70.8 -27.6 69.6 -36 62.4C-44.4 55.1 -47.5 41.8 -52.7 30.4C-57.8 19 -64.9 9.5 -72 0L0 0Z" fill="#fbae3c"></path></g><g transform="translate(0, 720)"><path d="M0 -360C68.4 -353.7 136.9 -347.5 180 -311.8C223.1 -276.1 241 -210.9 266.7 -154C292.5 -97.1 326.3 -48.6 360 0L0 0Z" fill="#18223c"></path><path d="M0 -288C54.7 -283 109.5 -278 144 -249.4C178.5 -220.8 192.8 -168.7 213.4 -123.2C234 -77.7 261 -38.9 288 0L0 0Z" fill="#683a67"></path><path d="M0 -216C41.1 -212.2 82.1 -208.5 108 -187.1C133.9 -165.6 144.6 -126.5 160 -92.4C175.5 -58.3 195.8 -29.1 216 0L0 0Z" fill="#c0526a"></path><path d="M0 -144C27.4 -141.5 54.7 -139 72 -124.7C89.3 -110.4 96.4 -84.3 106.7 -61.6C117 -38.9 130.5 -19.4 144 0L0 0Z" fill="#f6884d"></path><path d="M0 -72C13.7 -70.7 27.4 -69.5 36 -62.4C44.6 -55.2 48.2 -42.2 53.3 -30.8C58.5 -19.4 65.3 -9.7 72 0L0 0Z" fill="#fbae3c"></path></g></svg>