<svg id="visual" viewBox="0 0 540 960" width="540" height="960" xmlns="http://www.w3.org/2000/svg" xmlns:xlink="http://www.w3.org/1999/xlink" version="1.1"><rect x="0" y="0" width="540" height="960" fill="#000c16"></rect><defs><linearGradient id="grad1_0" x1="0%" y1="0%" x2="100%" y2="100%"><stop offset="30%" stop-color="#cc8823" stop-opacity="1"></stop><stop offset="70%" stop-color="#cc8823" stop-opacity="1"></stop></linearGradient></defs><defs><linearGradient id="grad1_1" x1="0%" y1="0%" x2="100%" y2="100%"><stop offset="30%" stop-color="#cc8823" stop-opacity="1"></stop><stop offset="70%" stop-color="#b84f4a" stop-opacity="1"></stop></linearGradient></defs><defs><linearGradient id="grad1_2" x1="0%" y1="0%" x2="100%" y2="100%"><stop offset="30%" stop-color="#78355a" stop-opacity="1"></stop><stop offset="70%" stop-color="#b84f4a" stop-opacity="1"></stop></linearGradient></defs><defs><linearGradient id="grad1_3" x1="0%" y1="0%" x2="100%" y2="100%"><stop offset="30%" stop-color="#78355a" stop-opacity="1"></stop><stop offset="70%" stop-color="#2e2744" stop-opacity="1"></stop></linearGradient></defs><defs><linearGradient id="grad1_4" x1="0%" y1="0%" x2="100%" y2="100%"><stop offset="30%" stop-color="#000c16" stop-opacity="1"></stop><stop offset="70%" stop-color="#2e2744" stop-opacity="1"></stop></linearGradient></defs><defs><linearGradient id="grad2_0" x1="0%" y1="0%" x2="100%" y2="100%"><stop offset="30%" stop-color="#cc8823" stop-opacity="1"></stop><stop offset="70%" stop-color="#cc8823" stop-opacity="1"></stop></linearGradient></defs><defs><linearGradient id="grad2_1" x1="0%" y1="0%" x2="100%" y2="100%"><stop offset="30%" stop-color="#b84f4a" stop-opacity="1"></stop><stop offset="70%" stop-color="#cc8823" stop-opacity="1"></stop></linearGradient></defs><defs><linearGradient id="grad2_2" x1="0%" y1="0%" x2="100%" y2="100%"><stop offset="30%" stop-color="#b84f4a" stop-opacity="1"></stop><stop offset="70%" stop-color="#78355a" stop-opacity="1"></stop></linearGradient></defs><defs><linearGradient id="grad2_3" x1="0%" y1="0%" x2="100%" y2="100%"><stop offset="30%" stop-color="#2e2744" stop-opacity="1"></stop><stop offset="70%" stop-color="#78355a" stop-opacity="1"></stop></linearGradient></defs><defs><linearGradient id="grad2_4" x1="0%" y1="0%" x2="100%" y2="100%"><stop offset="30%" stop-color="#2e2744" stop-opacity="1"></stop><stop offset="70%" stop-color="#000c16" stop-opacity="1"></stop></linearGradient></defs><g transform="translate(540, 0)"><path d="M0 243C-35.2 224.4 -70.4 205.9 -108.5 187.9C-146.6 170 -187.5 152.7 -210.4 121.5C-233.3 90.3 -238.2 45.1 -243 0L0 0Z" fill="#141c2e"></path><path d="M0 194.4C-28.2 179.5 -56.3 164.7 -86.8 150.3C-117.3 136 -150 122.2 -168.4 97.2C-186.7 72.2 -190.5 36.1 -194.4 0L0 0Z" fill="#522f54"></path><path d="M0 145.8C-21.1 134.7 -42.2 123.5 -65.1 112.8C-88 102 -112.5 91.6 -126.3 72.9C-140 54.2 -142.9 27.1 -145.8 0L0 0Z" fill="#9c3e56"></path><path d="M0 97.2C-14.1 89.8 -28.2 82.3 -43.4 75.2C-58.6 68 -75 61.1 -84.2 48.6C-93.3 36.1 -95.3 18.1 -97.2 0L0 0Z" fill="#c96838"></path><path d="M0 48.6C-7 44.9 -14.1 41.2 -21.7 37.6C-29.3 34 -37.5 30.5 -42.1 24.3C-46.7 18.1 -47.6 9 -48.6 0L0 0Z" fill="#cc8823"></path></g><g transform="translate(0, 960)"><path d="M0 -243C40.8 -234.1 81.6 -225.3 119 -206.1C156.4 -187 190.3 -157.6 210.4 -121.5C230.5 -85.4 236.8 -42.7 243 0L0 0Z" fill="#141c2e"></path><path d="M0 -194.4C32.6 -187.3 65.3 -180.2 95.2 -164.9C125.1 -149.6 152.3 -126.1 168.4 -97.2C184.4 -68.3 189.4 -34.2 194.4 0L0 0Z" fill="#522f54"></path><path d="M0 -145.8C24.5 -140.5 49 -135.2 71.4 -123.7C93.8 -112.2 114.2 -94.5 126.3 -72.9C138.3 -51.3 142.1 -25.6 145.8 0L0 0Z" fill="#9c3e56"></path><path d="M0 -97.2C16.3 -93.7 32.6 -90.1 47.6 -82.4C62.6 -74.8 76.1 -63 84.2 -48.6C92.2 -34.2 94.7 -17.1 97.2 0L0 0Z" fill="#c96838"></path><path d="M0 -48.6C8.2 -46.8 16.3 -45.1 23.8 -41.2C31.3 -37.4 38.1 -31.5 42.1 -24.3C46.1 -17.1 47.4 -8.5 48.6 0L0 0Z" fill="#cc8823"></path></g></svg>