<svg id="visual" viewBox="0 0 1440 1024" width="1440" height="1024" xmlns="http://www.w3.org/2000/svg" xmlns:xlink="http://www.w3.org/1999/xlink" version="1.1"><rect x="0" y="0" width="1440" height="1024" fill="#000c16"></rect><defs><linearGradient id="grad1_0" x1="28.9%" y1="0%" x2="100%" y2="100%"><stop offset="21.875%" stop-color="#cc8823" stop-opacity="1"></stop><stop offset="78.125%" stop-color="#cc8823" stop-opacity="1"></stop></linearGradient></defs><defs><linearGradient id="grad1_1" x1="28.9%" y1="0%" x2="100%" y2="100%"><stop offset="21.875%" stop-color="#cc8823" stop-opacity="1"></stop><stop offset="78.125%" stop-color="#b84f4a" stop-opacity="1"></stop></linearGradient></defs><defs><linearGradient id="grad1_2" x1="28.9%" y1="0%" x2="100%" y2="100%"><stop offset="21.875%" stop-color="#78355a" stop-opacity="1"></stop><stop offset="78.125%" stop-color="#b84f4a" stop-opacity="1"></stop></linearGradient></defs><defs><linearGradient id="grad1_3" x1="28.9%" y1="0%" x2="100%" y2="100%"><stop offset="21.875%" stop-color="#78355a" stop-opacity="1"></stop><stop offset="78.125%" stop-color="#2e2744" stop-opacity="1"></stop></linearGradient></defs><defs><linearGradient id="grad1_4" x1="28.9%" y1="0%" x2="100%" y2="100%"><stop offset="21.875%" stop-color="#000c16" stop-opacity="1"></stop><stop offset="78.125%" stop-color="#2e2744" stop-opacity="1"></stop></linearGradient></defs><defs><linearGradient id="grad2_0" x1="0%" y1="0%" x2="71.1%" y2="100%"><stop offset="21.875%" stop-color="#cc8823" stop-opacity="1"></stop><stop offset="78.125%" stop-color="#cc8823" stop-opacity="1"></stop></linearGradient></defs><defs><linearGradient id="grad2_1" x1="0%" y1="0%" x2="71.1%" y2="100%"><stop offset="21.875%" stop-color="#b84f4a" stop-opacity="1"></stop><stop offset="78.125%" stop-color="#cc8823" stop-opacity="1"></stop></linearGradient></defs><defs><linearGradient id="grad2_2" x1="0%" y1="0%" x2="71.1%" y2="100%"><stop offset="21.875%" stop-color="#b84f4a" stop-opacity="1"></stop><stop offset="78.125%" stop-color="#78355a" stop-opacity="1"></stop></linearGradient></defs><defs><linearGradient id="grad2_3" x1="0%" y1="0%" x2="71.1%" y2="100%"><stop offset="21.875%" stop-color="#2e2744" stop-opacity="1"></stop><stop offset="78.125%" stop-color="#78355a" stop-opacity="1"></stop></linearGradient></defs><defs><linearGradient id="grad2_4" x1="0%" y1="0%" x2="71.1%" y2="100%"><stop offset="21.875%" stop-color="#2e2744" stop-opacity="1"></stop><stop offset="78.125%" stop-color="#000c16" stop-opacity="1"></stop></linearGradient></defs><g transform="translate(1440, 0)"><path d="M0 397.6C-70.6 387.8 -141.3 378 -198.8 344.3C-256.3 310.6 -300.7 252.9 -331.7 191.5C-362.6 130.1 -380.1 65.1 -397.6 0L0 0Z" fill="#141c2e"></path><path d="M0 318.1C-56.5 310.2 -113 302.4 -159 275.4C-205 248.5 -240.6 202.3 -265.4 153.2C-290.1 104.1 -304.1 52 -318.1 0L0 0Z" fill="#522f54"></path><path d="M0 238.5C-42.4 232.7 -84.8 226.8 -119.3 206.6C-153.8 186.3 -180.4 151.7 -199 114.9C-217.6 78.1 -228.1 39 -238.5 0L0 0Z" fill="#9c3e56"></path><path d="M0 159C-28.3 155.1 -56.5 151.2 -79.5 137.7C-102.5 124.2 -120.3 101.2 -132.7 76.6C-145.1 52 -152 26 -159 0L0 0Z" fill="#c96838"></path><path d="M0 79.5C-14.1 77.6 -28.3 75.6 -39.8 68.9C-51.3 62.1 -60.1 50.6 -66.3 38.3C-72.5 26 -76 13 -79.5 0L0 0Z" fill="#cc8823"></path></g><g transform="translate(0, 1024)"><path d="M0 -397.6C62.4 -375.5 124.8 -353.4 186.5 -323C248.2 -292.7 309.2 -254 344.3 -198.8C379.4 -143.6 388.5 -71.8 397.6 0L0 0Z" fill="#141c2e"></path><path d="M0 -318.1C49.9 -300.4 99.8 -282.7 149.2 -258.4C198.6 -234.1 247.4 -203.2 275.4 -159C303.5 -114.9 310.8 -57.4 318.1 0L0 0Z" fill="#522f54"></path><path d="M0 -238.5C37.4 -225.3 74.9 -212 111.9 -193.8C148.9 -175.6 185.5 -152.4 206.6 -119.3C227.6 -86.1 233.1 -43.1 238.5 0L0 0Z" fill="#9c3e56"></path><path d="M0 -159C25 -150.2 49.9 -141.4 74.6 -129.2C99.3 -117.1 123.7 -101.6 137.7 -79.5C151.7 -57.4 155.4 -28.7 159 0L0 0Z" fill="#c96838"></path><path d="M0 -79.5C12.5 -75.1 25 -70.7 37.3 -64.6C49.6 -58.5 61.8 -50.8 68.9 -39.8C75.9 -28.7 77.7 -14.4 79.5 0L0 0Z" fill="#cc8823"></path></g></svg>