<svg id="visual" viewBox="0 0 540 960" width="540" height="960" xmlns="http://www.w3.org/2000/svg" xmlns:xlink="http://www.w3.org/1999/xlink" version="1.1"><rect x="0" y="0" width="540" height="960" fill="#001220"></rect><defs><linearGradient id="grad1_0" x1="0%" y1="0%" x2="100%" y2="100%"><stop offset="30%" stop-color="#fbae3c" stop-opacity="1"></stop><stop offset="70%" stop-color="#fbae3c" stop-opacity="1"></stop></linearGradient></defs><defs><linearGradient id="grad1_1" x1="0%" y1="0%" x2="100%" y2="100%"><stop offset="30%" stop-color="#fbae3c" stop-opacity="1"></stop><stop offset="70%" stop-color="#e1685e" stop-opacity="1"></stop></linearGradient></defs><defs><linearGradient id="grad1_2" x1="0%" y1="0%" x2="100%" y2="100%"><stop offset="30%" stop-color="#96446e" stop-opacity="1"></stop><stop offset="70%" stop-color="#e1685e" stop-opacity="1"></stop></linearGradient></defs><defs><linearGradient id="grad1_3" x1="0%" y1="0%" x2="100%" y2="100%"><stop offset="30%" stop-color="#96446e" stop-opacity="1"></stop><stop offset="70%" stop-color="#3d3056" stop-opacity="1"></stop></linearGradient></defs><defs><linearGradient id="grad1_4" x1="0%" y1="0%" x2="100%" y2="100%"><stop offset="30%" stop-color="#001220" stop-opacity="1"></stop><stop offset="70%" stop-color="#3d3056" stop-opacity="1"></stop></linearGradient></defs><defs><linearGradient id="grad2_0" x1="0%" y1="0%" x2="100%" y2="100%"><stop offset="30%" stop-color="#fbae3c" stop-opacity="1"></stop><stop offset="70%" stop-color="#fbae3c" stop-opacity="1"></stop></linearGradient></defs><defs><linearGradient id="grad2_1" x1="0%" y1="0%" x2="100%" y2="100%"><stop offset="30%" stop-color="#e1685e" stop-opacity="1"></stop><stop offset="70%" stop-color="#fbae3c" stop-opacity="1"></stop></linearGradient></defs><defs><linearGradient id="grad2_2" x1="0%" y1="0%" x2="100%" y2="100%"><stop offset="30%" stop-color="#e1685e" stop-opacity="1"></stop><stop offset="70%" stop-color="#96446e" stop-opacity="1"></stop></linearGradient></defs><defs><linearGradient id="grad2_3" x1="0%" y1="0%" x2="100%" y2="100%"><stop offset="30%" stop-color="#3d3056" stop-opacity="1"></stop><stop offset="70%" stop-color="#96446e" stop-opacity="1"></stop></linearGradient></defs><defs><linearGradient id="grad2_4" x1="0%" y1="0%" x2="100%" y2="100%"><stop offset="30%" stop-color="#3d3056" stop-opacity="1"></stop><stop offset="70%" stop-color="#001220" stop-opacity="1"></stop></linearGradient></defs><g transform="translate(540, 0)"><path d="M0 270C-34.8 241.9 -69.6 213.8 -112.5 194.9C-155.4 175.9 -206.2 166 -233.8 135C-261.4 104 -265.7 52 -270 0L0 0Z" fill="#18223c"></path><path d="M0 216C-27.9 193.5 -55.7 171.1 -90 155.9C-124.3 140.7 -165 132.8 -187.1 108C-209.1 83.2 -212.6 41.6 -216 0L0 0Z" fill="#683a67"></path><path d="M0 162C-20.9 145.2 -41.8 128.3 -67.5 116.9C-93.2 105.5 -123.7 99.6 -140.3 81C-156.8 62.4 -159.4 31.2 -162 0L0 0Z" fill="#c0526a"></path><path d="M0 108C-13.9 96.8 -27.9 85.5 -45 77.9C-62.1 70.3 -82.5 66.4 -93.5 54C-104.6 41.6 -106.3 20.8 -108 0L0 0Z" fill="#f6884d"></path><path d="M0 54C-7 48.4 -13.9 42.8 -22.5 39C-31.1 35.2 -41.2 33.2 -46.8 27C-52.3 20.8 -53.1 10.4 -54 0L0 0Z" fill="#fbae3c"></path></g><g transform="translate(0, 960)"><path d="M0 -270C35.4 -242.8 70.7 -215.7 113.5 -196.6C156.3 -177.5 206.5 -166.4 233.8 -135C261.1 -103.6 265.6 -51.8 270 0L0 0Z" fill="#18223c"></path><path d="M0 -216C28.3 -194.3 56.6 -172.6 90.8 -157.3C125 -142 165.2 -133.1 187.1 -108C208.9 -82.9 212.5 -41.4 216 0L0 0Z" fill="#683a67"></path><path d="M0 -162C21.2 -145.7 42.4 -129.4 68.1 -118C93.8 -106.5 123.9 -99.9 140.3 -81C156.7 -62.1 159.3 -31.1 162 0L0 0Z" fill="#c0526a"></path><path d="M0 -108C14.1 -97.1 28.3 -86.3 45.4 -78.6C62.5 -71 82.6 -66.6 93.5 -54C104.5 -41.4 106.2 -20.7 108 0L0 0Z" fill="#f6884d"></path><path d="M0 -54C7.1 -48.6 14.1 -43.1 22.7 -39.3C31.3 -35.5 41.3 -33.3 46.8 -27C52.2 -20.7 53.1 -10.4 54 0L0 0Z" fill="#fbae3c"></path></g></svg>